<svg xmlns="http://www.w3.org/2000/svg" viewBox="0 0 25 25"><defs><style>.cls-1{fill:#343a40;}.cls-2{fill:none;}</style></defs><title>Account settings</title><g id="Layer_2" data-name="Layer 2"><g id="Layer_1-2" data-name="Layer 1"><path class="cls-1" d="M1.15,17.08a4.63,4.63,0,0,1,0-1.66l-1-.58A.32.32,0,0,1,0,14.5a6.06,6.06,0,0,1,1.3-2.24.28.28,0,0,1,.35,0l1,.58A4.51,4.51,0,0,1,4.11,12V10.79a.28.28,0,0,1,.22-.27,5.81,5.81,0,0,1,2.59,0,.27.27,0,0,1,.22.27V12a4.41,4.41,0,0,1,1.44.83l1-.58a.27.27,0,0,1,.35,0,5.79,5.79,0,0,1,1.3,2.24.29.29,0,0,1-.13.34l-1,.58a4.22,4.22,0,0,1,0,1.66l1,.58a.29.29,0,0,1,.13.34,5.87,5.87,0,0,1-1.3,2.24.27.27,0,0,1-.35.05l-1-.58a4.41,4.41,0,0,1-1.44.83v1.17a.27.27,0,0,1-.22.27,5.81,5.81,0,0,1-2.59,0,.28.28,0,0,1-.22-.27V20.54a4.51,4.51,0,0,1-1.44-.83l-1,.58a.28.28,0,0,1-.35-.05A6.06,6.06,0,0,1,0,18a.32.32,0,0,1,.13-.34Zm4.47,1.06a1.89,1.89,0,1,0-1.89-1.89A1.9,1.9,0,0,0,5.62,18.14Zm2.77,3.21.26-.15.31.18a1.61,1.61,0,0,0,.77.2,1.57,1.57,0,0,0,1.13-.49,7.14,7.14,0,0,0,1.57-2.72,1.53,1.53,0,0,0-.7-1.78l-.31-.18V16.1l.31-.18a1.53,1.53,0,0,0,.7-1.78c0-.12-.09-.23-.13-.34.15,0,.3-.05.45-.05h.65a6.76,6.76,0,0,0,5.7,0h.65A5.25,5.25,0,0,1,25,19v1.63a1.88,1.88,0,0,1-1.88,1.87H9.37a1.85,1.85,0,0,1-1.06-.33,1.44,1.44,0,0,0,.08-.46Zm7.86-8.85a5,5,0,1,1,5-5A5,5,0,0,1,16.25,12.5Z"/><rect class="cls-2" width="25" height="25"/></g></g></svg>