<svg xmlns="http://www.w3.org/2000/svg" viewBox="0 0 25 25"><defs><style>.cls-1{fill:none;}.cls-2{fill:#343a40;}</style></defs><title>add user</title><g id="Layer_2" data-name="Layer 2"><g id="Layer_1-2" data-name="Layer 1"><rect class="cls-1" width="25" height="25"/><circle class="cls-2" cx="14.98" cy="6.47" r="5.73"/><path class="cls-2" d="M19,13.63h-.74a7.86,7.86,0,0,1-6.53,0h-.58a8,8,0,0,1,.47,2.69A8.1,8.1,0,0,1,7,23.63l.13,0H22.85A2.15,2.15,0,0,0,25,21.5V19.64A6,6,0,0,0,19,13.63Z"/><path class="cls-2" d="M10.63,17.1a5.32,5.32,0,1,1-5.32-5.31A5.32,5.32,0,0,1,10.63,17.1ZM8,16.44a.22.22,0,0,0-.22-.22H6.2V14.67A.22.22,0,0,0,6,14.45H4.65a.22.22,0,0,0-.22.22v1.55H2.88a.22.22,0,0,0-.22.22v1.33a.22.22,0,0,0,.22.22H4.43v1.55a.22.22,0,0,0,.22.22H6a.22.22,0,0,0,.22-.22V18H7.75A.22.22,0,0,0,8,17.77Z"/></g></g></svg>