<svg xmlns="http://www.w3.org/2000/svg" viewBox="0 0 51.14 52.99"><defs><style>.cls-1,.cls-2{fill:#6c757d;}.cls-2{fill-rule:evenodd;}</style></defs><title>Asset 305@15x</title><g id="Layer_2" data-name="Layer 2"><g id="Layer_5" data-name="Layer 5"><path class="cls-1" d="M48.32,37.12a32.9,32.9,0,0,1-10.26-1.88,2.91,2.91,0,0,0-3,.64L28.62,42.1A43.56,43.56,0,0,1,10,22.67l6.49-6.22a2.91,2.91,0,0,0,.78-2.91A32.73,32.73,0,0,1,15.89,3.18,2.89,2.89,0,0,0,13.06.23L3,0A2.88,2.88,0,0,0,0,2.82,49.07,49.07,0,0,0,48,53a2.87,2.87,0,0,0,2.95-2.82l.23-10.1A2.88,2.88,0,0,0,48.32,37.12Z"/><path class="cls-2" d="M43.59,9.64,32.87,19.39a.61.61,0,0,1-1-.33l-1.18-6.18a.61.61,0,0,0-1-.33L28.09,14a.63.63,0,0,0-.18.57l2,9.56a.61.61,0,0,0,.43.46l9.39,2.72a.62.62,0,0,0,.58-.14l1.57-1.46a.61.61,0,0,0-.26-1l-6.05-1.63a.61.61,0,0,1-.26-1l6.5-6L46,12.29a.61.61,0,0,0,.05-.87L44.45,9.68A.62.62,0,0,0,43.59,9.64Z"/></g></g></svg>