<svg xmlns="http://www.w3.org/2000/svg" viewBox="0 0 69.34 69.34"><defs><style>.cls-1{fill:#6c757d;}</style></defs><title>Asset 302@15x</title><g id="Layer_2" data-name="Layer 2"><g id="Layer_5" data-name="Layer 5"><path class="cls-1" d="M53.33,40.76a24.32,24.32,0,0,1-7.62-1.39,2.14,2.14,0,0,0-2.18.48l-4.82,4.61A32.3,32.3,0,0,1,24.93,30l4.81-4.61a2.15,2.15,0,0,0,.58-2.16,24.46,24.46,0,0,1-1.05-7.68,2.13,2.13,0,0,0-2.09-2.19l-7.49-.17a2.14,2.14,0,0,0-2.19,2.09A36.4,36.4,0,0,0,53.06,52.54a2.15,2.15,0,0,0,2.19-2.1L55.42,43A2.14,2.14,0,0,0,53.33,40.76Z"/><path class="cls-1" d="M34.67,0A34.67,34.67,0,1,0,69.34,34.67,34.71,34.71,0,0,0,34.67,0Zm0,5.67A28.77,28.77,0,0,1,52,11.49L11.49,52A28.94,28.94,0,0,1,34.67,5.67Zm0,58a28.86,28.86,0,0,1-19.35-7.46L56.21,15.32A29,29,0,0,1,34.67,63.67Z"/></g></g></svg>