<svg xmlns="http://www.w3.org/2000/svg" viewBox="0 0 25 25"><defs><style>.cls-1{fill:none;}.cls-2{fill:#343a40;}</style></defs><title>browser or channel</title><g id="Layer_2" data-name="Layer 2"><g id="Layer_1-2" data-name="Layer 1"><rect class="cls-1" width="25" height="25"/><path class="cls-2" d="M22.45,18.38A1.44,1.44,0,0,1,21,19.85H4a1.45,1.45,0,0,1-1.43-1.47,1.53,1.53,0,0,1,.38-1C3.79,16.43,5.4,15,5.4,10.29a7.2,7.2,0,0,1,5.68-7.13v-1a1.42,1.42,0,1,1,2.84,0v1a7.2,7.2,0,0,1,5.68,7.13c0,4.71,1.61,6.14,2.47,7.09A1.53,1.53,0,0,1,22.45,18.38ZM9.66,21.32h5.68a2.84,2.84,0,1,1-5.68,0Z"/></g></g></svg>