<svg xmlns="http://www.w3.org/2000/svg" viewBox="0 0 24.99 24.92"><defs><style>.cls-1{font-size:10.99px;font-family:MyriadPro-Bold, Myriad Pro;font-weight:700;}.cls-1,.cls-2{fill:#343a40;}</style></defs><title>buy_fax_1</title><g id="Layer_2" data-name="Layer 2"><g id="Layer_1-2" data-name="Layer 1"><text class="cls-1" transform="translate(18.82 22.17)">$</text><path class="cls-2" d="M25,16.34l-.4,1.51a3.28,3.28,0,0,1,.4.43Z"/><path class="cls-2" d="M23.42,23.22v1h.39A1,1,0,0,0,25,23.06v-1A3.45,3.45,0,0,1,23.42,23.22Z"/><path class="cls-2" d="M20.2,23.43a5.46,5.46,0,0,1-1.57-.53L18,22.52l.83-3.25a1,1,0,0,1,0-.16v0h0a.5.5,0,0,1,.08-.12A2.83,2.83,0,0,1,18.18,17a3,3,0,0,1,1.13-2.37.9.9,0,0,1-.57-.85.83.83,0,0,1,.88-.86.92.92,0,0,1,.65.34v-.62h3.2v1.19a5.15,5.15,0,0,1,1.22.39l.3.14v-4A1.08,1.08,0,0,0,23.82,9.2c-.43,0-.86,0-1.32,0,0-.93,0-1.76,0-2.59A1.69,1.69,0,0,0,22,5.25C20.39,3.7,18.84,2.15,17.3.57A1.81,1.81,0,0,0,15.89,0C12.58,0,9.28,0,6,0,4.85,0,4.49.37,4.49,1.52V5.27l-.8.14A4.11,4.11,0,0,0,0,9.77V19.7a4.19,4.19,0,0,0,4.38,4.49c5.27,0,10.55,0,15.82,0ZM7.08,19.61a2.16,2.16,0,0,1-2.34,2.44,2.21,2.21,0,0,1-2.56-2.42c0-1.65,0-3.29,0-4.93s0-3.47,0-5.21A1.72,1.72,0,0,1,3.3,7.76a3.14,3.14,0,0,1,2.63,0A1.78,1.78,0,0,1,7.09,9.54C7.07,12.89,7.08,16.25,7.08,19.61Zm5.77.81a.9.9,0,0,1-.84-.93.84.84,0,0,1,.85-.82.9.9,0,0,1,.89.88A.92.92,0,0,1,12.85,20.42Zm0-4.6a.85.85,0,0,1,.85.89.82.82,0,0,1-.92.82.81.81,0,0,1-.81-.85A.84.84,0,0,1,12.89,15.82ZM12,13.76a.85.85,0,0,1,.88-.81.9.9,0,0,1,.85.92.92.92,0,0,1-.92.85A.91.91,0,0,1,12,13.76ZM9.25,9.13A4,4,0,0,0,6.89,5.8a.46.46,0,0,1-.2-.32c0-1.08,0-2.16,0-3.28h8.46V5.65c0,1.41.29,1.69,1.72,1.69h3.19a1.2,1.2,0,0,1,.2.06V9.13Zm7,11.28a.81.81,0,0,1-.85-.84.85.85,0,1,1,.85.84Zm-.85-3.78a.76.76,0,0,1,.85-.8.79.79,0,0,1,.84.82.85.85,0,1,1-1.69,0Zm.82-1.92a.82.82,0,0,1-.82-.92.81.81,0,0,1,.83-.84.89.89,0,0,1,.87.89A.87.87,0,0,1,16.2,14.71Z"/></g></g></svg>