<svg xmlns="http://www.w3.org/2000/svg" viewBox="0 0 25 25"><defs><style>.cls-1{fill:none;}.cls-2{fill:#343a40;}</style></defs><title>buy_extn</title><g id="Layer_2" data-name="Layer 2"><g id="Layer_1-2" data-name="Layer 1"><rect class="cls-1" width="25" height="25"/><rect class="cls-1" width="25" height="25"/><path class="cls-2" d="M6,.93,9.2,2.86a.85.85,0,0,1,.35,1L8,7.87a.86.86,0,0,1-.86.54L4.42,8.18A13,13,0,0,0,4.54,17l2.73-.31a.82.82,0,0,1,.87.51L9.78,21.1a.84.84,0,0,1-.33,1l-3.14,2a.83.83,0,0,1-1-.1A16.27,16.27,0,0,1,5,1.06.84.84,0,0,1,6,.93Z"/><path class="cls-2" d="M10.44,17V16a4.42,4.42,0,0,1-1.81-.46L9,14.32a3.77,3.77,0,0,0,1.76.46c.62,0,1-.24,1-.66s-.34-.65-1.13-.92c-1.14-.38-1.92-.92-1.92-1.95a2,2,0,0,1,1.8-1.89v-1h1v.94a3.81,3.81,0,0,1,1.55.35l-.32,1.2a3.24,3.24,0,0,0-1.53-.37c-.69,0-.91.3-.91.6s.37.58,1.29.91c1.26.44,1.76,1,1.76,2a2,2,0,0,1-1.88,1.95V17Z"/><path class="cls-2" d="M15.28,11.63V4.09A1.09,1.09,0,0,1,16.37,3H18.9V1.85A1.16,1.16,0,0,1,20.05.7H23.5a1.15,1.15,0,0,1,1.15,1.15V5.3A1.14,1.14,0,0,1,23.5,6.45H20.05A1.15,1.15,0,0,1,18.9,5.3V4.15H16.43v7.48H18.9V10.48a1.15,1.15,0,0,1,1.15-1.15H23.5a1.14,1.14,0,0,1,1.15,1.15v3.45a1.15,1.15,0,0,1-1.15,1.15H20.05a1.16,1.16,0,0,1-1.15-1.15V12.78H16.43v7.47H18.9V19.1A1.16,1.16,0,0,1,20.05,18H23.5a1.15,1.15,0,0,1,1.15,1.15v3.45A1.14,1.14,0,0,1,23.5,23.7H20.05a1.15,1.15,0,0,1-1.15-1.15V21.4H16.37a1.09,1.09,0,0,1-1.09-1.09V11.63Z"/><rect class="cls-2" x="12.46" y="2.97" width="4.8" height="1.15"/></g></g></svg>