<svg xmlns="http://www.w3.org/2000/svg" viewBox="0 0 25 25"><defs><style>.cls-1{fill:none;}.cls-2{fill:#343a40;}</style></defs><title>buy_num</title><g id="Layer_2" data-name="Layer 2"><g id="Layer_1-2" data-name="Layer 1"><rect class="cls-1" width="25" height="25"/><rect class="cls-1" width="25" height="25"/><path class="cls-2" d="M10.31.88,13.5,2.81a.83.83,0,0,1,.35,1l-1.53,4a.84.84,0,0,1-.86.54L8.73,8.12a13.07,13.07,0,0,0,.11,8.79l2.73-.32a.85.85,0,0,1,.87.51L14.08,21a.86.86,0,0,1-.32,1l-3.15,2a.84.84,0,0,1-1-.1,16.26,16.26,0,0,1-.3-23A.83.83,0,0,1,10.31.88Z"/><path class="cls-2" d="M16.83,17.28V16.07a5.28,5.28,0,0,1-2.16-.55L15.05,14a4.49,4.49,0,0,0,2.11.56c.74,0,1.24-.3,1.24-.79S18,13,17,12.69c-1.36-.46-2.29-1.1-2.29-2.33a2.33,2.33,0,0,1,2.15-2.27V6.88h1.25V8A4.73,4.73,0,0,1,20,8.42l-.38,1.44a4,4,0,0,0-1.83-.45c-.83,0-1.1.37-1.1.73s.45.69,1.54,1.08c1.52.54,2.12,1.24,2.12,2.4A2.41,2.41,0,0,1,18.09,16v1.32Z"/></g></g></svg>