<svg xmlns="http://www.w3.org/2000/svg" viewBox="0 0 25 25"><defs><style>.cls-1{fill:none;}.cls-2{fill:#343a40;}</style></defs><title>call_history</title><g id="Layer_2" data-name="Layer 2"><g id="Layer_1-2" data-name="Layer 1"><rect class="cls-1" width="25" height="25"/><path class="cls-2" d="M.39,12.48A12.11,12.11,0,0,1,20.86,3.74l2.42-2.41a.78.78,0,0,1,1.33.56V9a.78.78,0,0,1-.78.79h-7.1a.78.78,0,0,1-.55-1.34L18.66,6a9,9,0,1,0-.58,13.59,1.18,1.18,0,0,1,1.56.1l.55.55a1.17,1.17,0,0,1-.09,1.74A12.11,12.11,0,0,1,.39,12.48Zm8.83,3.84-.48-.61A1.19,1.19,0,0,1,9,14.06l2-1.54V7.42a1.17,1.17,0,0,1,1.17-1.17h.78a1.17,1.17,0,0,1,1.17,1.17v6.63l-3.19,2.48A1.18,1.18,0,0,1,9.22,16.32Z"/></g></g></svg>