<svg xmlns="http://www.w3.org/2000/svg" viewBox="0 0 25 25"><defs><style>.cls-1{fill:none;}.cls-2{fill:#343a40;}</style></defs><title>call_handlers</title><g id="Layer_2" data-name="Layer 2"><g id="Layer_1-2" data-name="Layer 1"><rect class="cls-1" width="25" height="25"/><rect class="cls-1" width="25" height="25"/><path class="cls-2" d="M10.25,8.09h4.5A1.09,1.09,0,0,0,15.82,7V3.31a1.08,1.08,0,0,0-1.07-1.1h-4.5a1.08,1.08,0,0,0-1.07,1.1V7A1.09,1.09,0,0,0,10.25,8.09Z"/><path class="cls-2" d="M18.3,8.09h4.5A1.09,1.09,0,0,0,23.87,7V3.31a1.08,1.08,0,0,0-1.07-1.1H18.3a1.08,1.08,0,0,0-1.06,1.1V7A1.09,1.09,0,0,0,18.3,8.09Z"/><path class="cls-2" d="M18.68,10.52A6.73,6.73,0,0,1,23.87,13v-2.3a1.08,1.08,0,0,0-1.07-1.1H18.3a1.08,1.08,0,0,0-1.06,1.1v0A6.83,6.83,0,0,1,18.68,10.52Z"/><path class="cls-2" d="M10.25,15.44H12.2a6.77,6.77,0,0,1,3.62-4.27v-.51a1.08,1.08,0,0,0-1.07-1.1h-4.5a1.08,1.08,0,0,0-1.07,1.1v3.68A1.08,1.08,0,0,0,10.25,15.44Z"/><path class="cls-2" d="M6.7,2.21H2.19a1.08,1.08,0,0,0-1.06,1.1V7a1.09,1.09,0,0,0,1.06,1.1H6.7A1.09,1.09,0,0,0,7.76,7V3.31A1.08,1.08,0,0,0,6.7,2.21Z"/><path class="cls-2" d="M11.94,17.27c0-.12,0-.24,0-.36H10.25A1.09,1.09,0,0,0,9.18,18v3.68a1.08,1.08,0,0,0,1.07,1.1h4.56A6.73,6.73,0,0,1,11.94,17.27Z"/><path class="cls-2" d="M6.7,9.56H2.19a1.08,1.08,0,0,0-1.06,1.1v3.68a1.08,1.08,0,0,0,1.06,1.1H6.7a1.08,1.08,0,0,0,1.06-1.1V10.66A1.08,1.08,0,0,0,6.7,9.56Z"/><path class="cls-2" d="M6.7,16.91H2.19A1.09,1.09,0,0,0,1.13,18v3.68a1.08,1.08,0,0,0,1.06,1.1H6.7a1.08,1.08,0,0,0,1.06-1.1V18A1.09,1.09,0,0,0,6.7,16.91Z"/><path class="cls-2" d="M22.64,17.22a4,4,0,1,1-4-4A4,4,0,0,1,22.64,17.22ZM21,16.77a.19.19,0,0,0-.19-.19H19.32V15.11a.19.19,0,0,0-.19-.19h-.89a.19.19,0,0,0-.19.19v1.47H16.58a.19.19,0,0,0-.19.19v.9a.19.19,0,0,0,.19.19h1.47v1.47a.19.19,0,0,0,.19.19h.89a.19.19,0,0,0,.19-.19V17.86h1.47a.19.19,0,0,0,.19-.19Z"/></g></g></svg>