<svg xmlns="http://www.w3.org/2000/svg" viewBox="0 0 96.51 100"><defs><style>.cls-1,.cls-2{fill:#919090;}.cls-2{fill-rule:evenodd;}</style></defs><title>call forword@15x</title><g id="Layer_2" data-name="Layer 2"><g id="Layer_4" data-name="Layer 4"><path class="cls-1" d="M91.18,70.05A62.13,62.13,0,0,1,71.81,66.5a5.49,5.49,0,0,0-5.56,1.21L54,79.45A82.17,82.17,0,0,1,18.93,42.77L31.18,31a5.47,5.47,0,0,0,1.46-5.5A62.13,62.13,0,0,1,30,6,5.44,5.44,0,0,0,24.65.43L5.59,0A5.43,5.43,0,0,0,0,5.32,92.6,92.6,0,0,0,90.5,100a5.42,5.42,0,0,0,5.57-5.32l.44-19.06A5.43,5.43,0,0,0,91.18,70.05Z"/><path class="cls-2" d="M49.36,36.12l27.34.08a1.15,1.15,0,0,1,1,1.76l-6.21,10.1a1.16,1.16,0,0,0,1,1.76l4,0a1.16,1.16,0,0,0,1-.57l9.38-15.87a1.16,1.16,0,0,0,0-1.19L77.23,16.43a1.13,1.13,0,0,0-1-.55l-4,0a1.14,1.14,0,0,0-1,1.76l6.35,10a1.15,1.15,0,0,1-1,1.76l-16.73.13-10.54-.21a1.16,1.16,0,0,0-1.18,1.16l0,4.47A1.14,1.14,0,0,0,49.36,36.12Z"/></g></g></svg>