<svg xmlns="http://www.w3.org/2000/svg" viewBox="0 0 25 25"><defs><style>.cls-1{fill:none;}.cls-2{fill:#343a40;}</style></defs><title>call-forward</title><g id="Layer_2" data-name="Layer 2"><g id="Layer_1-2" data-name="Layer 1"><rect class="cls-1" width="25" height="25"/><path class="cls-2" d="M9.43.88l3.2,1.93a.84.84,0,0,1,.35,1l-1.54,4a.84.84,0,0,1-.85.54L7.85,8.12A13,13,0,0,0,8,16.91l2.72-.32a.86.86,0,0,1,.88.51L13.21,21a.87.87,0,0,1-.33,1l-3.14,2A.86.86,0,0,1,8.69,24a16.27,16.27,0,0,1-.3-23A.83.83,0,0,1,9.43.88Z"/><path class="cls-2" d="M16.42,8a.48.48,0,0,1,.68,0L21,12a.48.48,0,0,1,0,.68L17.1,16.59a.48.48,0,0,1-.68,0L16,16.14a.49.49,0,0,1,0-.7l2.43-2.32h-5.8a.49.49,0,0,1-.49-.49V12a.49.49,0,0,1,.49-.49h5.8L16,9.17a.47.47,0,0,1,0-.69Z"/></g></g></svg>