<svg xmlns="http://www.w3.org/2000/svg" viewBox="0 0 25 25"><defs><style>.cls-1{fill:#343a40;}.cls-2{fill:none;}</style></defs><title>call-settings</title><g id="Layer_2" data-name="Layer 2"><g id="Layer_1-2" data-name="Layer 1"><path class="cls-1" d="M1.75,2,6.46.91a1.1,1.1,0,0,1,1.25.63L9.88,6.62a1.09,1.09,0,0,1-.31,1.27L6.82,10.14a16.81,16.81,0,0,0,8,8.05l2.25-2.75a1.08,1.08,0,0,1,1.27-.32l5.07,2.18a1.1,1.1,0,0,1,.63,1.25L23,23.27a1.1,1.1,0,0,1-1.06.85A21,21,0,0,1,.91,3.06,1.08,1.08,0,0,1,1.75,2Z"/><path class="cls-1" d="M22.32,8.78a5.15,5.15,0,0,1-1.17,2,.26.26,0,0,1-.32,0l-.91-.53a4.27,4.27,0,0,1-1.3.76v1.06a.27.27,0,0,1-.21.25,5.59,5.59,0,0,1-2.34,0,.26.26,0,0,1-.2-.25V11.09a4.2,4.2,0,0,1-1.31-.76l-.91.53a.26.26,0,0,1-.32,0,5.28,5.28,0,0,1-1.17-2,.25.25,0,0,1,.12-.3L13.19,8a4.26,4.26,0,0,1,0-1.51l-.91-.53a.25.25,0,0,1-.12-.3,5.43,5.43,0,0,1,1.17-2,.26.26,0,0,1,.32-.05l.91.53a4.17,4.17,0,0,1,1.31-.75V2.25a.25.25,0,0,1,.2-.25,5.28,5.28,0,0,1,2.34,0,.25.25,0,0,1,.2.25v1a4.2,4.2,0,0,1,1.31.76l.91-.53a.26.26,0,0,1,.32.05,5.43,5.43,0,0,1,1.17,2,.25.25,0,0,1-.12.3l-.91.53a4.26,4.26,0,0,1,0,1.51l.91.53A.25.25,0,0,1,22.32,8.78ZM19,7.2a1.72,1.72,0,1,0-1.72,1.71A1.72,1.72,0,0,0,19,7.2Z"/><rect class="cls-2" width="25" height="25"/></g></g></svg>