<svg xmlns="http://www.w3.org/2000/svg" viewBox="0 0 25 25"><defs><style>.cls-1{fill:#343a40;}.cls-2{fill:none;}</style></defs><title>cards</title><g id="Layer_2" data-name="Layer 2"><g id="Layer_1-2" data-name="Layer 1"><path class="cls-1" d="M25,4.86V20.14a2.08,2.08,0,0,1-2.08,2.08H2.08A2.08,2.08,0,0,1,0,20.14V4.86A2.08,2.08,0,0,1,2.08,2.78H22.92A2.08,2.08,0,0,1,25,4.86ZM7.64,13a.52.52,0,0,0-.52-.52H3.3a.52.52,0,0,0-.52.52v1.74a.52.52,0,0,0,.52.52H7.12a.52.52,0,0,0,.52-.52ZM7,18.57a.53.53,0,0,0-.53-.52H3.3a.52.52,0,0,0-.52.52v.35a.52.52,0,0,0,.52.52H6.42A.52.52,0,0,0,7,18.92Zm1.38-3.81a.53.53,0,0,0,.52.52h2.78a.52.52,0,0,0,.52-.52V13a.52.52,0,0,0-.52-.52H8.85a.52.52,0,0,0-.52.52Zm7,3.81a.53.53,0,0,0-.52-.52H8.85a.53.53,0,0,0-.52.52v.35a.52.52,0,0,0,.52.52h5.91a.52.52,0,0,0,.52-.52ZM16.67,13a.52.52,0,0,0-.52-.52H13.37a.52.52,0,0,0-.52.52v1.74a.52.52,0,0,0,.52.52h2.78a.53.53,0,0,0,.52-.52ZM22.22,6.6a1,1,0,0,0-1-1H17.71a1,1,0,0,0-1,1V8.68a1,1,0,0,0,1,1h3.47a1,1,0,0,0,1-1Zm0,6.42a.52.52,0,0,0-.52-.52H17.88a.52.52,0,0,0-.52.52v1.74a.52.52,0,0,0,.52.52H21.7a.52.52,0,0,0,.52-.52Z"/><rect class="cls-2" width="25" height="25"/><rect class="cls-2" width="25" height="25"/></g></g></svg>