<svg xmlns="http://www.w3.org/2000/svg" viewBox="0 0 25 25"><defs><style>.cls-1{fill:none;}.cls-2{fill:#343a40;}</style></defs><title>Channels</title><g id="Layer_2" data-name="Layer 2"><g id="Layer_1-2" data-name="Layer 1"><rect class="cls-1" width="25" height="25"/><path class="cls-2" d="M13.84,6.64A1.81,1.81,0,0,1,11.55,5.5a1.84,1.84,0,0,1,3.51-1.11A1.81,1.81,0,0,1,13.84,6.64Zm.36,14.81a1.78,1.78,0,1,1-1.07-3.39L13.4,18l.77-3a3.09,3.09,0,0,1-1.65-1.85,3.16,3.16,0,0,1,2.13-3.94,3.23,3.23,0,0,1,2.8.4l2.06-1.85,0-.08A1.84,1.84,0,0,1,23,6.54a1.81,1.81,0,0,1-1.22,2.25,1.84,1.84,0,0,1-1.33-.08l-2.05,1.84a3.1,3.1,0,0,1-1.84,4.56,3.08,3.08,0,0,1-1,.14l-.77,3.05a1.72,1.72,0,0,1,.68.9A1.82,1.82,0,0,1,14.2,21.45Zm.28-14.32.41,1.28L14,8.68l-.4-1.27ZM16,13.42a1.33,1.33,0,1,0-.81-2.54,1.34,1.34,0,0,0-.91,1.68A1.35,1.35,0,0,0,16,13.42ZM18.47,15l.54-.73,1.39,1-.54.73Zm3.42.27a1.78,1.78,0,1,1-1.21,2.25A1.82,1.82,0,0,1,21.89,15.28Z"/><path class="cls-2" d="M6.39.88,9.58,2.81a.85.85,0,0,1,.36,1l-1.54,4a.84.84,0,0,1-.86.54L4.81,8.12a13,13,0,0,0,.12,8.79l2.72-.32a.84.84,0,0,1,.87.51L10.16,21a.85.85,0,0,1-.32,1l-3.15,2a.84.84,0,0,1-1-.1,16.26,16.26,0,0,1-.3-23A.83.83,0,0,1,6.39.88Z"/></g></g></svg>