<svg xmlns="http://www.w3.org/2000/svg" viewBox="0 0 25 25"><defs><style>.cls-1{fill:#343a40;}.cls-2{fill:none;}</style></defs><title>desk_phones</title><g id="Layer_2" data-name="Layer 2"><g id="Layer_1-2" data-name="Layer 1"><path class="cls-1" d="M25,4.86V21.53a2.08,2.08,0,0,1-2.08,2.08H2.08A2.08,2.08,0,0,1,0,21.53V4.86A2.08,2.08,0,0,1,2.08,2.78h.7V18.05a2.78,2.78,0,0,0,2.78,2.78H8.33a2.77,2.77,0,0,0,2.78-2.78V2.78H22.92A2.08,2.08,0,0,1,25,4.86ZM4.17,18.05V2.78A1.39,1.39,0,0,1,5.56,1.39H8.33A1.39,1.39,0,0,1,9.72,2.78V18.05a1.39,1.39,0,0,1-1.39,1.39H5.56A1.39,1.39,0,0,1,4.17,18.05Zm18-12.49H13.89V9.72h8.33Zm-5.55,7.63a.69.69,0,0,0-.7-.69H14.58a.69.69,0,0,0-.69.69v1.39a.69.69,0,0,0,.69.7H16a.7.7,0,0,0,.7-.7Zm0,5.56a.7.7,0,0,0-.7-.7H14.58a.7.7,0,0,0-.69.7v1.39a.69.69,0,0,0,.69.69H16a.69.69,0,0,0,.7-.69Zm5.55-5.56a.69.69,0,0,0-.69-.69H20.14a.69.69,0,0,0-.7.69v1.39a.7.7,0,0,0,.7.7h1.39a.69.69,0,0,0,.69-.7Zm0,5.56a.7.7,0,0,0-.69-.7H20.14a.7.7,0,0,0-.7.7v1.39a.69.69,0,0,0,.7.69h1.39a.69.69,0,0,0,.69-.69Z"/><rect class="cls-2" width="25" height="25"/></g></g></svg>