<svg xmlns="http://www.w3.org/2000/svg" viewBox="0 0 51.14 52.99" ><defs><style>.cls-1,.cls-2{fill:#6c757d;}.cls-2{fill-rule:evenodd;}</style></defs><title>Asset 307@15x</title><g id="Layer_2" data-name="Layer 2"><g id="Layer_5" data-name="Layer 5"><path class="cls-1" d="M48.32,37.12a32.9,32.9,0,0,1-10.26-1.88,2.91,2.91,0,0,0-3,.64L28.62,42.1A43.56,43.56,0,0,1,10,22.67l6.49-6.22a2.91,2.91,0,0,0,.78-2.91A32.73,32.73,0,0,1,15.89,3.18,2.89,2.89,0,0,0,13.06.23L3,0A2.88,2.88,0,0,0,0,2.82,49.07,49.07,0,0,0,48,53a2.87,2.87,0,0,0,2.95-2.82l.23-10.1A2.88,2.88,0,0,0,48.32,37.12Z"/><path class="cls-2" d="M31.63,25.22l10.72-9.75a.61.61,0,0,1,1,.34L44.54,22a.62.62,0,0,0,1,.34l1.57-1.46a.64.64,0,0,0,.18-.57l-2-9.57a.63.63,0,0,0-.43-.46L35.48,7.55a.6.6,0,0,0-.58.14L33.33,9.15a.61.61,0,0,0,.25,1l6.06,1.64a.61.61,0,0,1,.26,1l-6.5,6-4.2,3.69a.62.62,0,0,0,0,.87l1.61,1.74A.61.61,0,0,0,31.63,25.22Z"/></g></g></svg>