<svg xmlns="http://www.w3.org/2000/svg" viewBox="0 0 25 25"><defs><style>.cls-1{fill:#343a40;}.cls-2{fill:none;}</style></defs><title>Asset 135</title><g id="Layer_2" data-name="Layer 2"><g id="Layer_1-2" data-name="Layer 1"><path class="cls-1" d="M1.38,2,6.25.9a1.12,1.12,0,0,1,1.29.65L9.79,6.79a1.15,1.15,0,0,1-.33,1.32L6.62,10.43a17.36,17.36,0,0,0,8.31,8.3l2.32-2.83a1.13,1.13,0,0,1,1.31-.33l5.25,2.25a1.14,1.14,0,0,1,.66,1.29L23.34,24a1.12,1.12,0,0,1-1.09.87A21.74,21.74,0,0,1,.5,3.12,1.12,1.12,0,0,1,1.38,2Z"/><path class="cls-1" d="M20.51,10.47a.3.3,0,0,1,0,.43l-.48.48a.3.3,0,0,1-.43,0L17.54,9.32l-2.06,2.06a.3.3,0,0,1-.43,0l-.48-.48a.3.3,0,0,1,0-.43l2.06-2.06L14.57,6.35a.3.3,0,0,1,0-.43l.48-.48a.3.3,0,0,1,.43,0L17.54,7.5,19.6,5.44a.3.3,0,0,1,.43,0l.48.48a.3.3,0,0,1,0,.43L18.45,8.41Z"/><rect class="cls-2" width="25" height="25"/></g></g></svg>