<svg xmlns="http://www.w3.org/2000/svg" viewBox="0 0 100 100"><defs><style>.cls-1{fill:#919090;}</style></defs><title>disconnect@15x</title><g id="Layer_2" data-name="Layer 2"><g id="Layer_4" data-name="Layer 4"><path class="cls-1" d="M76.91,58.79a35.36,35.36,0,0,1-11-2,3.11,3.11,0,0,0-3.15.69l-7,6.65A46.54,46.54,0,0,1,36,43.33l6.95-6.65a3.11,3.11,0,0,0,.82-3.12,35.65,35.65,0,0,1-1.51-11.07,3.07,3.07,0,0,0-3-3.16l-10.81-.25a3.09,3.09,0,0,0-3.16,3,52.5,52.5,0,0,0,51.3,53.67,3.07,3.07,0,0,0,3.15-3L79.93,62A3.08,3.08,0,0,0,76.91,58.79Z"/><path class="cls-1" d="M50,0a50,50,0,1,0,50,50A50.06,50.06,0,0,0,50,0Zm0,8.18a41.6,41.6,0,0,1,25,8.39L16.57,75A41.75,41.75,0,0,1,50,8.18Zm0,83.64A41.6,41.6,0,0,1,22.1,81.07l59-59A41.75,41.75,0,0,1,50,91.82Z"/></g></g></svg>