<svg xmlns="http://www.w3.org/2000/svg" viewBox="0 0 25 25"><defs><style>.cls-1{fill:none;}.cls-2{fill:#252525;}</style></defs><title>Asset 100</title><g id="Layer_2" data-name="Layer 2"><g id="Layer_1-2" data-name="Layer 1"><rect class="cls-1" width="25" height="25"/><rect class="cls-1" width="25" height="25"/><path class="cls-2" d="M7.14.23l3.2,1.94a.84.84,0,0,1,.35,1l-1.53,4a.86.86,0,0,1-.86.53L5.56,7.48a13,13,0,0,0,.12,8.78L8.41,16a.83.83,0,0,1,.87.51l1.64,3.94a.86.86,0,0,1-.33,1l-3.14,2a.83.83,0,0,1-1-.11A16.27,16.27,0,0,1,6.1.36.85.85,0,0,1,7.14.23Z"/><path class="cls-2" d="M14.13,12.82V5.29a1.1,1.1,0,0,1,1.1-1.1h2.53V3a1.16,1.16,0,0,1,1.15-1.15h3.45A1.15,1.15,0,0,1,23.51,3V6.49a1.14,1.14,0,0,1-1.15,1.15H18.91a1.15,1.15,0,0,1-1.15-1.15V5.34H15.29v7.48h2.47V11.67a1.15,1.15,0,0,1,1.15-1.15h3.45a1.14,1.14,0,0,1,1.15,1.15v3.45a1.15,1.15,0,0,1-1.15,1.15H18.91a1.16,1.16,0,0,1-1.15-1.15V14H15.29v7.47h2.47V20.29a1.16,1.16,0,0,1,1.15-1.15h3.45a1.15,1.15,0,0,1,1.15,1.15v3.45a1.14,1.14,0,0,1-1.15,1.15H18.91a1.15,1.15,0,0,1-1.15-1.15V22.59H15.23a1.1,1.1,0,0,1-1.1-1.09V12.82Z"/><rect class="cls-2" x="11.31" y="4.16" width="4.8" height="1.15"/></g></g></svg>