<svg xmlns="http://www.w3.org/2000/svg" viewBox="0 0 51.14 52.99"><defs><style>.cls-1,.cls-2{fill:#6c757d;}.cls-2{fill-rule:evenodd;}</style></defs><title>Asset 304@15x</title><g id="Layer_2" data-name="Layer 2"><g id="Layer_5" data-name="Layer 5"><path class="cls-1" d="M48.32,37.12a32.9,32.9,0,0,1-10.26-1.88,2.91,2.91,0,0,0-3,.64L28.62,42.1A43.56,43.56,0,0,1,10,22.67l6.49-6.22a2.91,2.91,0,0,0,.78-2.91A32.73,32.73,0,0,1,15.89,3.18,2.89,2.89,0,0,0,13.06.23L3,0A2.88,2.88,0,0,0,0,2.82,49.07,49.07,0,0,0,48,53a2.87,2.87,0,0,0,2.95-2.82l.23-10.1A2.88,2.88,0,0,0,48.32,37.12Z"/><path class="cls-2" d="M26.16,19.14l14.48.05a.61.61,0,0,1,.52.93l-3.29,5.35a.61.61,0,0,0,.52.93l2.15,0a.6.6,0,0,0,.52-.3l5-8.41A.62.62,0,0,0,46,17L40.93,8.71a.6.6,0,0,0-.53-.3l-2.14,0a.61.61,0,0,0-.51.94l3.37,5.29a.62.62,0,0,1-.51.94l-8.87.06-5.59-.1a.61.61,0,0,0-.62.61l0,2.37A.6.6,0,0,0,26.16,19.14Z"/></g></g></svg>