<svg xmlns="http://www.w3.org/2000/svg" viewBox="0 0 25 25"><defs><style>.cls-1{fill:#343a40;}.cls-2{fill:none;}</style></defs><title>greeting</title><g id="Layer_2" data-name="Layer 2"><g id="Layer_1-2" data-name="Layer 1"><path class="cls-1" d="M25,18.75c0,1.73-2.1,3.13-4.69,3.13s-4.68-1.4-4.68-3.13,2.09-3.12,4.68-3.12a6.68,6.68,0,0,1,1.57.19v-9L9.38,10.46V21.88C9.38,23.6,7.28,25,4.69,25S0,23.6,0,21.88s2.1-3.13,4.69-3.13a7.09,7.09,0,0,1,1.56.19V6.18A1.55,1.55,0,0,1,7.34,4.69L23,.07a1.56,1.56,0,0,1,2,1.49Z"/><rect class="cls-2" width="25" height="25"/></g></g></svg>