<svg xmlns="http://www.w3.org/2000/svg" viewBox="0 0 25 25"><defs><style>.cls-1{fill:#343a40;}.cls-2{fill:none;}</style></defs><title>integrations</title><g id="Layer_2" data-name="Layer 2"><g id="Layer_1-2" data-name="Layer 1"><path class="cls-1" d="M5,10a3.63,3.63,0,0,1-1.23,0l-.32.56a.48.48,0,0,1-.59.21A4.28,4.28,0,0,1,1.59,10a.49.49,0,0,1-.11-.61l.32-.56a3.26,3.26,0,0,1-.62-1.07H.54a.48.48,0,0,1-.48-.41,4.35,4.35,0,0,1,0-1.44.48.48,0,0,1,.48-.41h.64A3.48,3.48,0,0,1,1.8,4.46L1.48,3.9a.49.49,0,0,1,.11-.61,4.51,4.51,0,0,1,1.26-.73.49.49,0,0,1,.59.22l.32.55A3.63,3.63,0,0,1,5,3.33l.33-.55a.47.47,0,0,1,.58-.22,4.51,4.51,0,0,1,1.26.73.48.48,0,0,1,.11.61L7,4.46a3.48,3.48,0,0,1,.62,1.07h.64a.49.49,0,0,1,.48.41,4.41,4.41,0,0,1,0,1.45.48.48,0,0,1-.48.4H7.57A3.26,3.26,0,0,1,7,8.86l.32.56a.48.48,0,0,1-.11.61,4.16,4.16,0,0,1-1.26.73.47.47,0,0,1-.58-.21ZM5,21.67a3.63,3.63,0,0,1-1.23,0l-.32.55a.49.49,0,0,1-.59.22,4.51,4.51,0,0,1-1.26-.73.49.49,0,0,1-.11-.61l.32-.56a3.48,3.48,0,0,1-.62-1.07H.54a.49.49,0,0,1-.48-.41,4.41,4.41,0,0,1,0-1.45.48.48,0,0,1,.48-.4h.64a3.26,3.26,0,0,1,.62-1.07l-.32-.56A.49.49,0,0,1,1.59,15a4.28,4.28,0,0,1,1.26-.73.48.48,0,0,1,.59.21l.32.56A3.63,3.63,0,0,1,5,15l.33-.56a.47.47,0,0,1,.58-.21A4.28,4.28,0,0,1,7.16,15a.48.48,0,0,1,.11.61L7,16.14a3.26,3.26,0,0,1,.62,1.07h.64a.48.48,0,0,1,.48.41,4.35,4.35,0,0,1,0,1.44.48.48,0,0,1-.48.41H7.57A3.48,3.48,0,0,1,7,20.54l.32.56a.48.48,0,0,1-.11.61,4.38,4.38,0,0,1-1.26.73.47.47,0,0,1-.58-.22Zm.41-14A1.46,1.46,0,0,0,3.34,5.63,1.46,1.46,0,0,0,5.4,7.69Zm0,11.68A1.46,1.46,0,0,0,3.34,17.3,1.46,1.46,0,0,0,5.4,19.37Zm4.51-5.66a7,7,0,0,1,0-2.49l-1.32-.65A1,1,0,0,1,8.2,9.43,9.17,9.17,0,0,1,9.85,6.86.94.94,0,0,1,11,6.65l1.14.66a6.82,6.82,0,0,1,2.14-1.24V4.76a.93.93,0,0,1,.78-.92,9,9,0,0,1,3,0,.93.93,0,0,1,.77.92V6.08A6.61,6.61,0,0,1,21,7.31l1.14-.65a.92.92,0,0,1,1.18.21,9.11,9.11,0,0,1,1.65,2.57.94.94,0,0,1-.41,1.13l-1.3.66a6.89,6.89,0,0,1,0,2.48l1.3.65a1,1,0,0,1,.41,1.14,9.2,9.2,0,0,1-1.65,2.56.92.92,0,0,1-1.18.21L21,17.62a6.82,6.82,0,0,1-2.14,1.24v1.31a.94.94,0,0,1-.78.92,8.71,8.71,0,0,1-3,0,.94.94,0,0,1-.77-.92V18.86a6.82,6.82,0,0,1-2.14-1.24L11,18.28a.94.94,0,0,1-1.18-.21A9.24,9.24,0,0,1,8.18,15.5a1,1,0,0,1,.41-1.14Zm4.59.82a2.92,2.92,0,0,0,4.13-4.13A2.92,2.92,0,0,0,14.5,14.53Z"/><rect class="cls-2" width="25" height="25"/></g></g></svg>