<svg xmlns="http://www.w3.org/2000/svg" viewBox="0 0 25 25"><defs><style>.cls-1{fill:#343a40;}.cls-2{fill:none;}</style></defs><title>invoice</title><g id="Layer_2" data-name="Layer 2"><g id="Layer_1-2" data-name="Layer 1"><path class="cls-1" d="M15.12,8H21.5V23.37a1.12,1.12,0,0,1-1.13,1.13H4.63A1.12,1.12,0,0,1,3.5,23.37V1.63A1.12,1.12,0,0,1,4.63.5H14V6.88A1.12,1.12,0,0,0,15.12,8ZM6.5,4.63A.38.38,0,0,0,6.88,5h3.75A.38.38,0,0,0,11,4.63V3.88a.38.38,0,0,0-.37-.38H6.88a.38.38,0,0,0-.38.38ZM6.88,8h3.75A.38.38,0,0,0,11,7.63V6.88a.38.38,0,0,0-.37-.38H6.88a.38.38,0,0,0-.38.38v.75A.38.38,0,0,0,6.88,8Zm8.37,9.88a2.11,2.11,0,0,0-1.48-2l-2.11-.64a.6.6,0,0,1-.41-.59A.59.59,0,0,1,11.8,14h1.32a1.16,1.16,0,0,1,.6.17.39.39,0,0,0,.48,0l.55-.53a.37.37,0,0,0,0-.56,2.65,2.65,0,0,0-1.47-.54V11.38a.38.38,0,0,0-.38-.38h-.74a.38.38,0,0,0-.38.38v1.13a2.08,2.08,0,0,0-2,2.11,2.12,2.12,0,0,0,1.48,2l2.11.63a.62.62,0,0,1,.41.6.59.59,0,0,1-.55.62H11.88a1.08,1.08,0,0,1-.6-.18.39.39,0,0,0-.48,0l-.55.52a.38.38,0,0,0,0,.57,2.63,2.63,0,0,0,1.47.53v1.14a.38.38,0,0,0,.38.38h.75a.38.38,0,0,0,.37-.38V20A2.08,2.08,0,0,0,15.25,17.88ZM21.5,6.22V6.5h-6V.5h.29a1.13,1.13,0,0,1,.79.33l4.59,4.59A1.14,1.14,0,0,1,21.5,6.22Z"/><rect class="cls-2" width="25" height="25"/></g></g></svg>