<svg xmlns="http://www.w3.org/2000/svg" viewBox="0 0 25 25"><defs><style>.cls-1{fill:none;}.cls-2{fill:#343a40;}</style></defs><title>IVR</title><g id="Layer_2" data-name="Layer 2"><g id="Layer_1-2" data-name="Layer 1"><rect class="cls-1" width="25" height="25"/><path class="cls-2" d="M7.76,7A1.09,1.09,0,0,1,6.7,8.09H2.19A1.09,1.09,0,0,1,1.13,7V3.31a1.08,1.08,0,0,1,1.06-1.1H6.7a1.08,1.08,0,0,1,1.06,1.1Zm0,3.67v3.68a1.08,1.08,0,0,1-1.06,1.1H2.19a1.08,1.08,0,0,1-1.06-1.1V10.66a1.08,1.08,0,0,1,1.06-1.1H6.7A1.08,1.08,0,0,1,7.76,10.66ZM2.19,16.91H6.7A1.09,1.09,0,0,1,7.76,18v3.68a1.08,1.08,0,0,1-1.06,1.1H2.19a1.08,1.08,0,0,1-1.06-1.1V18A1.09,1.09,0,0,1,2.19,16.91ZM14.75,8.09h-4.5A1.09,1.09,0,0,1,9.18,7V3.31a1.08,1.08,0,0,1,1.07-1.1h4.5a1.08,1.08,0,0,1,1.07,1.1V7A1.09,1.09,0,0,1,14.75,8.09Zm0,7.35h-4.5a1.08,1.08,0,0,1-1.07-1.1V10.66a1.08,1.08,0,0,1,1.07-1.1h4.5a1.08,1.08,0,0,1,1.07,1.1v3.68A1.08,1.08,0,0,1,14.75,15.44Zm-4.5,1.47h4.5A1.09,1.09,0,0,1,15.82,18v3.68a1.08,1.08,0,0,1-1.07,1.1h-4.5a1.08,1.08,0,0,1-1.07-1.1V18A1.09,1.09,0,0,1,10.25,16.91ZM18.3,2.21h4.5a1.08,1.08,0,0,1,1.07,1.1V7a1.09,1.09,0,0,1-1.07,1.1H18.3A1.09,1.09,0,0,1,17.24,7V3.31A1.08,1.08,0,0,1,18.3,2.21ZM17.24,14.34V10.66a1.08,1.08,0,0,1,1.06-1.1h4.5a1.08,1.08,0,0,1,1.07,1.1v3.68a1.08,1.08,0,0,1-1.07,1.1H18.3A1.08,1.08,0,0,1,17.24,14.34Zm0,7.35V18a1.09,1.09,0,0,1,1.06-1.1h4.5A1.09,1.09,0,0,1,23.87,18v3.68a1.08,1.08,0,0,1-1.07,1.1H18.3A1.08,1.08,0,0,1,17.24,21.69Z"/></g></g></svg>