<svg id="Isolation_Mode" data-name="Isolation Mode"  xmlns="http://www.w3.org/2000/svg" viewBox="0 0 591.07 124.77"><defs><style>.cls-1{fill:#fff;}.cls-1,.cls-3{fill-rule:evenodd;}.cls-2,.cls-3{fill:#ffcd06;}</style></defs><title>Logo</title><path class="cls-1" d="M78.89,38.48a6.76,6.76,0,0,1-.15,9.22L15.21,110.44l-.5.51a6.18,6.18,0,0,1-8.81-.15,6.73,6.73,0,0,1,.15-9.27L69.58,38.84l.45-.51a6.32,6.32,0,0,1,4.48-1.86,6.16,6.16,0,0,1,4.38,2Z" transform="translate(-4.12 -3.5)"/><path class="cls-1" d="M5.9,38.47a6.16,6.16,0,0,1,4.38-2,6.21,6.21,0,0,1,4.43,1.86l.5.51,63.53,62.69a6.83,6.83,0,0,1,.15,9.27,6.23,6.23,0,0,1-8.86.15l-.45-.51L6.05,47.69a6.66,6.66,0,0,1-.15-9.22Z" transform="translate(-4.12 -3.5)"/><path class="cls-1" d="M246.47,105.91a7.8,7.8,0,0,1-15.59,0l-.06-1.06-.24-40.36a13.46,13.46,0,0,0-4-9.92,13.86,13.86,0,0,0-10.1-3.9q-7.89,0-13.65,6.56a23.39,23.39,0,0,0-5.73,15.83l.24,31.79-.06,1.12a7.77,7.77,0,0,1-15.53,0l-.06-.89-.24-60.32.06-2.25a7.68,7.68,0,0,1,15.36,0l.06,1.6v4.25a52.3,52.3,0,0,1,12.4-9.75,23.28,23.28,0,0,1,12.34-3.42,25.18,25.18,0,0,1,17.49,6.61c4.78,4.38,7.2,11.94,7,18.14l.23,45.08Z" transform="translate(-4.12 -3.5)"/><path class="cls-1" d="M106.43,77.55h49l2.31-.06a8.91,8.91,0,0,0,8.74-10.69l-.06-.59a38.44,38.44,0,0,0-10.16-19,38.72,38.72,0,0,0-55.17-.18A37.71,37.71,0,0,0,89.77,74.24c0,11.17,3.72,20.56,11.16,28.07s16.72,11.28,27.77,11.28c11.34,0,20.85-3.42,28.58-10.16l.42-.41a7.19,7.19,0,0,0-5.14-12.23,7.19,7.19,0,0,0-4.49,1.59l-1.12.89a26.7,26.7,0,0,1-17.49,6.14,27.1,27.1,0,0,1-16.06-5.2c-4.43-3.19-7.39-8-9-14.59v-.24a.85.85,0,0,1-.06-.41,1.35,1.35,0,0,1,1.42-1.36Zm42-12.82H107.73a1.44,1.44,0,0,1-1.42-1.42,1.38,1.38,0,0,1,.12-.53l.23-.47c4.73-8.51,12-12.77,21.86-12.77q13.56,0,21,12.77l.17.35a1.18,1.18,0,0,1,.18.65,1.4,1.4,0,0,1-1.42,1.42Z" transform="translate(-4.12 -3.5)"/><path class="cls-1" d="M422.72,43.58a7.43,7.43,0,0,1,9.93-7,7.51,7.51,0,0,1,5,7.41h0v59.2c0,.2,0,.4,0,.59l-.1,1.24c0,6.45-8.15,10.94-14.65,3.73a.45.45,0,0,1-.12-.24l-.05-5V43.58Z" transform="translate(-4.12 -3.5)"/><path class="cls-1" d="M272.76,40.15a7.35,7.35,0,0,0-13.35,6.14l.41.77,29.83,63.7.41.76a1.81,1.81,0,0,0,1.6,1,2,2,0,0,0,1.77-1.12l.41-.77,26.52-56.66,3.37-7.21.12-.36a7.35,7.35,0,0,0-13.35-6.14l-.18.35L306,49.84,293.73,76.37l-.18.23a2,2,0,0,1-1.66.89,1.91,1.91,0,0,1-1.59-.89l-.24-.35L273.17,40.8Z" transform="translate(-4.12 -3.5)"/><path class="cls-1" d="M511,105.5a7.23,7.23,0,0,0,3.72-9.57,7.35,7.35,0,0,0-9.51-4.14l-.24.12c-6,3.37-11.4,5-16.3,5a21.68,21.68,0,0,1-16.12-6.85A23.63,23.63,0,0,1,466,73.18a20.65,20.65,0,0,1,7-15.6A23.06,23.06,0,0,1,489.35,51a35.79,35.79,0,0,1,15.71,4l.36.18a7.39,7.39,0,0,0,9.51-4.08,7.25,7.25,0,0,0-3.78-9.57l-.3-.18a46.23,46.23,0,0,0-20.55-5.26c-11.17,0-20.44,3.73-27.82,11.11S451.37,63.78,451.37,75q0,14.71,11.17,26c7.44,7.44,16.06,11.22,26,11.22,7.21,0,14.65-2.24,22.33-6.67Z" transform="translate(-4.12 -3.5)"/><path class="cls-1" d="M537.25,77.14h47.14l2.18-.06a8.64,8.64,0,0,0,8.63-8.63,7.87,7.87,0,0,0-.18-1.71l-.06-.59a37.63,37.63,0,0,0-9.8-18.38,36.9,36.9,0,0,0-53-.18A36.51,36.51,0,0,0,521.25,74c0,10.81,3.54,19.85,10.75,27.18s16.06,10.93,26.69,10.93q16.3,0,27.47-9.87l.41-.41c2.31-2.31,3-6.33.12-10,0-.06,0-.06-.06-.06-3.42-2.48-7-2.13-9.33-.24l-1.06.89a26.34,26.34,0,0,1-32.25.89c-4.26-3.08-7.15-7.8-8.63-14.12l-.06-.24a.87.87,0,0,1-.06-.41,1.38,1.38,0,0,1,1.36-1.36Zm40.46-12.41H538.49a1.41,1.41,0,0,1-1.35-1.36,1.72,1.72,0,0,1,.11-.59l.24-.41C542,54.09,549,50,558.52,50c8.68,0,15.41,4.13,20.26,12.41l.11.29a1.56,1.56,0,0,1,.18.71,1.34,1.34,0,0,1-1.36,1.36Z" transform="translate(-4.12 -3.5)"/><circle class="cls-2" cx="397.08" cy="116.49" r="8.28"/><circle class="cls-2" cx="334.98" cy="21.64" r="8.84"/><circle class="cls-2" cx="424.85" cy="8.84" r="8.84"/><rect class="cls-2" x="403.5" y="5.31" width="4.15" height="60.04" transform="translate(135.07 -276.04) rotate(44.15)"/><rect class="cls-2" x="390.85" y="89.52" width="4.78" height="37.23" transform="translate(4.48 240.23) rotate(-34.79)"/><circle class="cls-2" cx="326.38" cy="113.01" r="8.28"/><rect class="cls-2" x="338.04" y="87.81" width="4.87" height="37.93" transform="translate(168.88 -211.81) rotate(44.6)"/><rect class="cls-2" x="346.84" y="29.8" width="4.46" height="24.83" transform="translate(24.72 183.93) rotate(-31.29)"/><path class="cls-3" d="M340.56,74.6c0-7.29,2.87-13.79,8.66-19.49s12.42-8.53,19.88-8.53A28.06,28.06,0,0,1,389.29,55q8.63,8.42,8.62,19.62t-8.48,19.89c-5.62,5.75-12.15,8.62-19.53,8.62a28.47,28.47,0,0,1-20.63-8.53c-5.79-5.66-8.71-12.33-8.71-20Zm46.44.05h0a16.12,16.12,0,0,0-5.17-11.89q-6.7-6.43-16.57-4.6a14,14,0,0,0-5.39,2.21c-5.52,3.85-8.31,8.75-8.31,14.68A15.69,15.69,0,0,0,357,86.84a17.47,17.47,0,0,0,12.55,5.09,16.8,16.8,0,0,0,12.24-5.22A16.3,16.3,0,0,0,387,74.65Z" transform="translate(-4.12 -3.5)"/></svg>