<svg xmlns="http://www.w3.org/2000/svg" viewBox="0 0 25 25"><defs><style>.cls-1{fill:none;}.cls-2{fill:#252525;}</style></defs><title>Asset 61</title><g id="Layer_2" data-name="Layer 2"><g id="Layer_1-2" data-name="Layer 1"><rect class="cls-1" width="25" height="25"/><path class="cls-2" d="M0,4.69V2.46a.89.89,0,0,1,.89-.9H24.11a.89.89,0,0,1,.89.9V4.69a.89.89,0,0,1-.89.89H.89A.89.89,0,0,1,0,4.69Zm0,8.93V11.38a.89.89,0,0,1,.89-.89H24.11a.89.89,0,0,1,.89.89v2.24a.89.89,0,0,1-.89.89H.89A.89.89,0,0,1,0,13.62Zm0,8.92V20.31a.89.89,0,0,1,.89-.89H24.11a.89.89,0,0,1,.89.89v2.23a.89.89,0,0,1-.89.9H.89A.89.89,0,0,1,0,22.54Z"/></g></g></svg>