<svg xmlns="http://www.w3.org/2000/svg" viewBox="0 0 25 25"><defs><style>.cls-1{fill:none;}.cls-2{fill:#343a40;}</style></defs><title>menu</title><g id="Layer_2" data-name="Layer 2"><g id="Layer_1-2" data-name="Layer 1"><rect class="cls-1" width="25" height="25"/><path class="cls-2" d="M5.28,8V6.7a.52.52,0,0,1,.52-.52H19.2a.52.52,0,0,1,.52.52V8a.51.51,0,0,1-.52.51H5.8A.51.51,0,0,1,5.28,8Zm0,5.15V11.86a.52.52,0,0,1,.52-.52H19.2a.52.52,0,0,1,.52.52v1.28a.52.52,0,0,1-.52.52H5.8A.52.52,0,0,1,5.28,13.14Zm0,5.16V17a.51.51,0,0,1,.52-.51H19.2a.51.51,0,0,1,.52.51V18.3a.52.52,0,0,1-.52.52H5.8A.52.52,0,0,1,5.28,18.3Z"/></g></g></svg>