<svg xmlns="http://www.w3.org/2000/svg" viewBox="0 0 25 25"><defs><style>.cls-1{fill:none;}.cls-2{fill:#343a40;}</style></defs><title>menu</title><g id="Layer_2" data-name="Layer 2"><g id="Layer_1-2" data-name="Layer 1"><rect class="cls-1" width="25" height="25"/><path class="cls-2" d="M3.61,6.94V5.36a.63.63,0,0,1,.63-.64H20.76a.63.63,0,0,1,.63.64V6.94a.64.64,0,0,1-.63.64H4.24A.64.64,0,0,1,3.61,6.94Zm0,6.35V11.71a.64.64,0,0,1,.63-.64H20.76a.64.64,0,0,1,.63.64v1.58a.64.64,0,0,1-.63.64H4.24A.64.64,0,0,1,3.61,13.29Zm0,6.35V18.06a.64.64,0,0,1,.63-.64H20.76a.64.64,0,0,1,.63.64v1.58a.63.63,0,0,1-.63.64H4.24A.63.63,0,0,1,3.61,19.64Z"/></g></g></svg>