<svg xmlns="http://www.w3.org/2000/svg" viewBox="0 0 71.1 50.62"><defs><style>.cls-1,.cls-2{fill:#6c757d;}.cls-2{fill-rule:evenodd;}</style></defs><title>Asset 303@15x</title><g id="Layer_2" data-name="Layer 2"><g id="Layer_5" data-name="Layer 5"><path class="cls-1" d="M12.08,49.77a32.92,32.92,0,0,1,8.45-6.12,2.89,2.89,0,0,0,1.57-2.57v-9a43.57,43.57,0,0,1,26.89,0v9a2.9,2.9,0,0,0,1.57,2.58A33.08,33.08,0,0,1,59,49.77a2.89,2.89,0,0,0,4.09,0l7.14-7.15a2.88,2.88,0,0,0,0-4.08,49.07,49.07,0,0,0-69.4,0,2.88,2.88,0,0,0,0,4.08L8,49.77A2.87,2.87,0,0,0,12.08,49.77Z"/><polygon class="cls-2" points="49.44 3 39.05 0 36.34 2.52 44.78 4.8 37.24 11.8 33.81 14.82 31.97 12.95 24.95 5.43 22.24 7.96 33.75 20.06 36.47 17.52 36.39 17.45 47.31 7.52 48.96 16.11 51.67 13.59 49.44 3"/></g></g></svg>