<svg xmlns="http://www.w3.org/2000/svg" viewBox="0 0 99.38 99.53"><defs><style>.cls-1{fill:#919090;}</style></defs><title>notification@15x</title><g id="Layer_2" data-name="Layer 2"><g id="Layer_4" data-name="Layer 4"><path class="cls-1" d="M95.48,72c-8.94-7.47-17.2-18-17.2-44.35C78.28,12.4,65.45,0,49.69,0S21.1,12.4,21.1,27.65C21.1,54,12.84,64.54,3.9,72A10.79,10.79,0,0,0,0,80.26a3.2,3.2,0,0,0,3.25,3.15H96.13a3.2,3.2,0,0,0,3.25-3.15A10.75,10.75,0,0,0,95.48,72Z"/><path class="cls-1" d="M49.69,99.53A15.82,15.82,0,0,0,65.27,87.27H34.11A15.82,15.82,0,0,0,49.69,99.53Z"/></g></g></svg>