<svg xmlns="http://www.w3.org/2000/svg" viewBox="0 0 25 25"><defs><style>.cls-1{fill:#343a40;}.cls-2{fill:none;}</style></defs><title>Asset 111</title><g id="Layer_2" data-name="Layer 2"><g id="Layer_1-2" data-name="Layer 1"><path class="cls-1" d="M1.37,1.66,6.25.53a1.14,1.14,0,0,1,1.29.65L9.79,6.43a1.13,1.13,0,0,1-.33,1.31L6.62,10.07a17.4,17.4,0,0,0,8.31,8.3l2.32-2.84a1.11,1.11,0,0,1,1.31-.32l5.25,2.25a1.14,1.14,0,0,1,.66,1.29l-1.13,4.88a1.12,1.12,0,0,1-1.09.87A21.75,21.75,0,0,1,.5,2.75,1.11,1.11,0,0,1,1.37,1.66Z"/><rect class="cls-2" width="25" height="25"/></g></g></svg>