<svg xmlns="http://www.w3.org/2000/svg" viewBox="0 0 25 25"><defs><style>.cls-1{fill:#343a40;}.cls-2{fill:none;}</style></defs><title>Asset 119</title><g id="Layer_2" data-name="Layer 2"><g id="Layer_1-2" data-name="Layer 1"><path class="cls-1" d="M4.13,14.53l-.54.56a1,1,0,0,1-1.7-.28,7.46,7.46,0,0,1-.76-3.31A7.24,7.24,0,0,1,8.24,4.15h8.08L14.78,2.66a1.14,1.14,0,0,1,0-1.59l.48-.49a1,1,0,0,1,1.51,0l4.11,4.26a1.12,1.12,0,0,1,0,1.56L17.3,10.09a1,1,0,0,1-1.51,0l-.48-.5a1.13,1.13,0,0,1,0-1.58l1-.92H8.24A4.34,4.34,0,0,0,4,11.5a4.49,4.49,0,0,0,.37,1.8A1.14,1.14,0,0,1,4.13,14.53Zm12.63,6.32H8.68l1.54,1.49a1.14,1.14,0,0,1,0,1.59l-.48.49a1,1,0,0,1-1.51,0L4.14,20.16a1.12,1.12,0,0,1,0-1.56L7.7,14.91a1,1,0,0,1,1.51,0l.48.5a1.13,1.13,0,0,1,0,1.58l-1,.92h8.08A4.34,4.34,0,0,0,21,13.5a4.49,4.49,0,0,0-.37-1.8,1.14,1.14,0,0,1,.21-1.23l.54-.56a1,1,0,0,1,1.7.28,7.46,7.46,0,0,1,.76,3.31A7.24,7.24,0,0,1,16.76,20.85Zm-5-6.88h.67V12.14c0-.24,0-.49,0-.49h0a1.38,1.38,0,0,1-.13.18.45.45,0,0,1-.69-.05l-.25-.29a.48.48,0,0,1,0-.75l1-.92A.82.82,0,0,1,13,9.56h.54a.47.47,0,0,1,.52.53V14h.69a.47.47,0,0,1,.51.53v.41a.47.47,0,0,1-.51.53h-3a.47.47,0,0,1-.52-.53V14.5A.47.47,0,0,1,11.74,14Z"/><rect class="cls-2" width="25" height="25"/></g></g></svg>