<svg xmlns="http://www.w3.org/2000/svg" viewBox="0 0 25 25"><defs><style>.cls-1{fill:none;}.cls-2{fill:#252525;}.cls-3{fill:#231f20;}</style></defs><title>Asset 52</title><g id="Layer_2" data-name="Layer 2"><g id="Layer_1-2" data-name="Layer 1"><rect class="cls-1" width="25" height="25"/><path class="cls-2" d="M24.64,10.48a.69.69,0,0,1-.69.69H15.71a.68.68,0,0,1-.69-.69A.62.62,0,0,1,15.2,10a4,4,0,0,0,1.19-3.32,3.38,3.38,0,0,1,2.75-3.34V2.9a.69.69,0,1,1,1.38,0v.45a3.39,3.39,0,0,1,2.74,3.34A4,4,0,0,0,24.46,10,.71.71,0,0,1,24.64,10.48Zm-6.19,1.37H21.2a1.38,1.38,0,1,1-2.75,0Z"/><path class="cls-3" d="M.78,9.26c1.39,1.09,1.84,1.47,7.87,5.84C9.41,15.66,10.92,17,12,17s2.56-1.32,3.33-1.88l2.18-1.58a2.93,2.93,0,0,1-.42-.85H15.71a2.19,2.19,0,0,1-2.19-2.19A2.13,2.13,0,0,1,14.1,9l.09-.1a2.65,2.65,0,0,0,.7-2.2,4.79,4.79,0,0,1,.19-1.32H2.54A2.17,2.17,0,0,0,.36,7.54v.87A1.06,1.06,0,0,0,.78,9.26Z"/><path class="cls-3" d="M22.59,12.67a2.86,2.86,0,0,1-3.94,1.8l-2.49,1.81c-1,.7-2.57,2.17-4.18,2.16S8.71,17,7.79,16.28c-4.63-3.36-6-4.37-7-5.16a.27.27,0,0,0-.44.21v9.28a2.17,2.17,0,0,0,2.18,2.18H21.42a2.17,2.17,0,0,0,2.17-2.18V12.67Z"/></g></g></svg>