<svg xmlns="http://www.w3.org/2000/svg" viewBox="0 0 25 25"><defs><style>.cls-1{fill:none;}.cls-2{fill:#343a40;}</style></defs><title>Fax 2</title><g id="Layer_2" data-name="Layer 2"><g id="Layer_1-2" data-name="Layer 1"><rect class="cls-1" width="25" height="25"/><path class="cls-2" d="M7.53,12.94v5.82a2,2,0,0,1-2,2.06,12.72,12.72,0,0,1-1.63,0,2,2,0,0,1-1.77-2V10.22c0-1,0-2,0-3.06A2,2,0,0,1,3.3,5.21,2.59,2.59,0,0,1,4.36,5c.47,0,.95,0,1.42,0A2,2,0,0,1,7.53,7c0,1,0,2,0,3Z"/><path class="cls-2" d="M17.09,6.36h-.24a4.09,4.09,0,0,0-.7,0h-.24a4.21,4.21,0,0,0-.71,0H15a4.21,4.21,0,0,0-.71,0H14a4.09,4.09,0,0,0-.7,0h-.24a4.21,4.21,0,0,0-.71,0h-.24a4.21,4.21,0,0,0-.71,0h-.84c-.13,0-.16,0-.16.12s0,.31,0,.47v.18a.43.43,0,0,1,0,.16c-.05.19.07.24.29.2h5.92c.54,0,.54,0,.51-.39V6.9h0C17.12,6.72,17.19,6.54,17.09,6.36Z"/><path class="cls-2" d="M10.43,5.67h0a.38.38,0,0,0,.21,0h6.21c.3,0,.3,0,.28-.24V4.91c0-.06,0-.11,0-.15.1-.2.08-.22-.17-.22H10.7c-.29,0-.29,0-.28.21v.73A.28.28,0,0,0,10.43,5.67Z"/><path class="cls-2" d="M19.24,22.35l-.45-.47a2,2,0,0,1,0-2.75H16.37a2,2,0,0,1-1.9-1.57c0,.11,0,.22,0,.33a.22.22,0,0,1-.23.22,5.9,5.9,0,0,1-.94,0,.24.24,0,0,1-.24-.29c0-.14,0-.28,0-.42h0v-.45a.23.23,0,0,1,.24-.24h.85a.28.28,0,0,1,.28.23v-.46a1.94,1.94,0,0,1,1.38-1.86v-.4c0-.18.08-.27.26-.27h.45c.14,0,.28,0,.42,0s.28.08.28.27v.31h1.59a2,2,0,0,1,0-2.76l.45-.47a1.92,1.92,0,0,1,.68-.45q0-.57,0-1.14a2.6,2.6,0,0,0-1.07-2,.58.58,0,0,1-.26-.51c0-2.33,0-2.75,0-5.08,0-.45-.17-.62-.61-.62H10.54a.51.51,0,0,0-.41.18c-.53.54-1.07,1.07-1.61,1.6a.7.7,0,0,0-.23.56v7c0,2.56.06,5.6,0,8.65a2.1,2.1,0,0,1-2,2.06c-.94,0-1.88,0-2.81,0A2,2,0,0,1,1.5,20.07a2.75,2.75,0,0,1-.12-.86V7.83c0-.09,0-.22,0-.26s-.17.07-.24.12a2.48,2.48,0,0,0-1,2.08c0,.48,0,1,0,1.44,0,.77,0,1.54,0,2.3,0,1.23,0,2.47,0,3.7,0,.33,0,.65,0,1,0,.55,0,1.11,0,1.66a6.57,6.57,0,0,0,.1,1.66,2.67,2.67,0,0,0,2.6,2h14.5a2.84,2.84,0,0,0,.5-.06,2.63,2.63,0,0,0,1.66-1Zm-4.76-7.27a.26.26,0,0,1-.26.28,8.42,8.42,0,0,1-.87,0,.26.26,0,0,1-.28-.31v-.42c0-.78-.05-.67.67-.68h.47a.24.24,0,0,1,.27.26Q14.5,14.65,14.48,15.08ZM8.81,8.68V4c0-.24.06-.33.3-.31.39,0,.78,0,1.16,0s.38,0,.38-.39,0-.74,0-1.11c0-.19.06-.26.25-.26h6.93c.19,0,.26.06.26.26,0,2.81,0,3.71,0,6.52,0,.23-.12.25-.3.25H9.13C8.82,9,8.81,9,8.81,8.68Zm2.93,5.58v.79a.28.28,0,0,1-.28.31,8.22,8.22,0,0,1-.86,0c-.18,0-.28-.11-.28-.31v-.42c0-.76-.09-.67.67-.68h.45A.27.27,0,0,1,11.74,14.26Zm-1.42,3.12h0v-.47q0-.21.21-.21h1c.17,0,.23.12.24.27v.87c0,.18-.13.25-.28.26h-.89a.23.23,0,0,1-.25-.27C10.33,17.68,10.32,17.53,10.32,17.38Zm1.11,3.48H10.6c-.19,0-.28-.08-.28-.27s0-.57,0-.85.1-.3.31-.3h.75c.29,0,.35.05.36.34s0,.5,0,.75S11.64,20.87,11.43,20.86Zm2.8,0c-.27,0-.54,0-.8,0a.34.34,0,0,1-.36-.39v-.73c0-.2.09-.29.29-.29h.85a.23.23,0,0,1,.27.25q0,.45,0,.9A.23.23,0,0,1,14.23,20.86Zm2.31,0c-.15,0-.3,0-.45,0a.24.24,0,0,1-.27-.26q0-.45,0-.9a.23.23,0,0,1,.25-.25H17a.23.23,0,0,1,.26.24v.48C17.23,20.86,17.23,20.86,16.54,20.86Z"/><path class="cls-2" d="M20.12,12.29a.48.48,0,0,1,.7,0l4,4.17a.52.52,0,0,1,0,.73l-4,4.17a.48.48,0,0,1-.7,0l-.46-.48a.52.52,0,0,1,0-.73l2.5-2.47h-6a.5.5,0,0,1-.49-.51v-.69A.5.5,0,0,1,16.2,16h6l-2.5-2.47a.52.52,0,0,1,0-.74Z"/></g></g></svg>