<svg xmlns="http://www.w3.org/2000/svg" viewBox="0 0 25 25"><defs><style>.cls-1{fill:none;}.cls-2{fill:#343a40;}</style></defs><title>release_number</title><g id="Layer_2" data-name="Layer 2"><g id="Layer_1-2" data-name="Layer 1"><rect class="cls-1" width="25" height="25"/><path class="cls-2" d="M17.47,6.29a.53.53,0,0,1,.77,0l4.4,4.56a.56.56,0,0,1,0,.79l-4.4,4.56a.53.53,0,0,1-.77,0l-.5-.52a.58.58,0,0,1,0-.81l2.73-2.69H13.19a.55.55,0,0,1-.54-.56v-.75a.55.55,0,0,1,.54-.56h6.52L17,7.62a.57.57,0,0,1,0-.81Z"/><path class="cls-2" d="M14.7,17V18.4H3.9V2.74H14.7V5.62h1.71V2.94A2.17,2.17,0,0,0,14.28.73H4.33A2.17,2.17,0,0,0,2.2,2.94V22.06a2.17,2.17,0,0,0,2.13,2.21h10a2.17,2.17,0,0,0,2.13-2.21V17ZM9.3,22.79a1.47,1.47,0,1,1,1.43-1.47A1.44,1.44,0,0,1,9.3,22.79Z"/></g></g></svg>