<svg xmlns="http://www.w3.org/2000/svg" viewBox="0 0 25 25"><defs><style>.cls-1{fill:#343a40;}.cls-2{fill:none;}</style></defs><title>Asset 118</title><g id="Layer_2" data-name="Layer 2"><g id="Layer_1-2" data-name="Layer 1"><path class="cls-1" d="M23.44,5.47V7.81H1.56V5.47A2.34,2.34,0,0,1,3.91,3.13H6.25V.78A.78.78,0,0,1,7,0H8.59a.79.79,0,0,1,.79.78V3.13h6.25V.78A.78.78,0,0,1,16.41,0H18a.78.78,0,0,1,.78.78V3.13h2.34A2.34,2.34,0,0,1,23.44,5.47ZM1.56,9.38H23.44V22.66A2.35,2.35,0,0,1,21.09,25H3.91a2.35,2.35,0,0,1-2.35-2.34ZM4.69,15a.59.59,0,0,0,.58.59h2A.59.59,0,0,0,7.81,15V13.09a.58.58,0,0,0-.58-.59h-2a.58.58,0,0,0-.58.59Zm0,6.25a.59.59,0,0,0,.58.59h2a.59.59,0,0,0,.58-.59V19.34a.58.58,0,0,0-.58-.59h-2a.58.58,0,0,0-.58.59ZM10.94,15a.59.59,0,0,0,.58.59h2a.59.59,0,0,0,.58-.59V13.09a.58.58,0,0,0-.58-.59h-2a.58.58,0,0,0-.58.59Zm0,6.25a.59.59,0,0,0,.58.59h2a.59.59,0,0,0,.58-.59V19.34a.58.58,0,0,0-.58-.59h-2a.58.58,0,0,0-.58.59ZM17.19,15a.59.59,0,0,0,.58.59h2a.59.59,0,0,0,.58-.59V13.09a.58.58,0,0,0-.58-.59h-2a.58.58,0,0,0-.58.59Zm0,6.25a.59.59,0,0,0,.58.59h2a.59.59,0,0,0,.58-.59V19.34a.58.58,0,0,0-.58-.59h-2a.58.58,0,0,0-.58.59Z"/><rect class="cls-2" width="25" height="25"/></g></g></svg>