<svg xmlns="http://www.w3.org/2000/svg" viewBox="0 0 25 25"><defs><style>.cls-1{fill:#343a40;}.cls-2{fill:none;}</style></defs><title>Asset 112</title><g id="Layer_2" data-name="Layer 2"><g id="Layer_1-2" data-name="Layer 1"><path class="cls-1" d="M8.92,13.6C2.44,8.9,1.94,8.49.45,7.32A1.19,1.19,0,0,1,0,6.4V5.47A2.34,2.34,0,0,1,2.34,3.13H22.66A2.34,2.34,0,0,1,25,5.47V6.4a1.18,1.18,0,0,1-.45.92c-1.49,1.17-2,1.58-8.47,6.28-.82.6-2.45,2-3.58,2S9.74,14.2,8.92,13.6ZM25,9.55v10a2.35,2.35,0,0,1-2.34,2.35H2.34A2.35,2.35,0,0,1,0,19.53v-10a.29.29,0,0,1,.47-.23C1.57,10.17,3,11.25,8,14.87c1,.75,2.77,2.33,4.5,2.32S16,15.59,17,14.87c5-3.62,6.42-4.7,7.52-5.55A.29.29,0,0,1,25,9.55Z"/><rect class="cls-2" width="25" height="25"/></g></g></svg>