<svg xmlns="http://www.w3.org/2000/svg" viewBox="0 0 25 25"><defs><style>.cls-1{fill:#343a40;}.cls-2{fill:none;}</style></defs><title>users</title><g id="Layer_2" data-name="Layer 2"><g id="Layer_1-2" data-name="Layer 1"><path class="cls-1" d="M3.82,17.5H1.25A1.25,1.25,0,0,1,0,16.25V15a2.5,2.5,0,0,1,2.5-2.5H5a2.48,2.48,0,0,1,1.76.73A5.74,5.74,0,0,0,3.82,17.5ZM1.25,8.75a2.5,2.5,0,1,1,2.5,2.5A2.5,2.5,0,0,1,1.25,8.75ZM20,18.25v1.13a1.87,1.87,0,0,1-1.87,1.87H6.88A1.88,1.88,0,0,1,5,19.38V18.25a4.51,4.51,0,0,1,4.5-4.5h.32a6,6,0,0,0,5.36,0h.32A4.51,4.51,0,0,1,20,18.25ZM8.13,8.13A4.38,4.38,0,1,1,12.5,12.5,4.37,4.37,0,0,1,8.13,8.13ZM25,15v1.25a1.25,1.25,0,0,1-1.25,1.25H21.17a5.71,5.71,0,0,0-2.93-4.27A2.48,2.48,0,0,1,20,12.5h2.5A2.5,2.5,0,0,1,25,15ZM18.75,8.75a2.5,2.5,0,1,1,2.5,2.5A2.5,2.5,0,0,1,18.75,8.75Z"/><rect class="cls-2" width="25" height="25"/></g></g></svg>