<svg xmlns="http://www.w3.org/2000/svg" viewBox="0 0 25 25"><defs><style>.cls-1{fill:#343a40;}.cls-2{fill:none;}</style></defs><title>Voicemail</title><g id="Layer_2" data-name="Layer 2"><g id="Layer_1-2" data-name="Layer 1"><path class="cls-1" d="M19.44,7a5.56,5.56,0,0,0-5.56,5.54A5.47,5.47,0,0,0,15,15.84H10a5.47,5.47,0,0,0,1.15-3.34A5.56,5.56,0,1,0,4.75,18V18h15l.5,0V18a5.53,5.53,0,0,0-.79-11ZM16.08,12.5a3.36,3.36,0,1,1,3.36,3.34A3.36,3.36,0,0,1,16.08,12.5Zm-13.87,0a3.36,3.36,0,1,1,3.35,3.34A3.35,3.35,0,0,1,2.21,12.5Z"/><rect class="cls-2" width="25" height="25"/></g></g></svg>